<?xml version="1.0" standalone="no"?>
<!DOCTYPE svg PUBLIC "-//W3C//DTD SVG 20010904//EN"
 "http://www.w3.org/TR/2001/REC-SVG-20010904/DTD/svg10.dtd">
<svg version="1.0" xmlns="http://www.w3.org/2000/svg"
 width="833.000000pt" height="828.000000pt" viewBox="0 0 833.000000 828.000000"
 preserveAspectRatio="xMidYMid meet">

<g transform="translate(0.000000,828.000000) scale(0.100000,-0.100000)"
fill="#000000" stroke="none">
<path d="M0 4140 l0 -4140 4165 0 4165 0 0 4140 0 4140 -4165 0 -4165 0 0
-4140z m3890 2562 c0 -34 -64 -115 -127 -161 l-64 -46 68 -6 c77 -6 119 -25
157 -69 40 -48 35 -54 -41 -46 -70 7 -149 37 -192 73 l-25 20 -64 -28 c-107
-48 -110 -54 -27 -54 61 0 77 -4 113 -28 23 -15 42 -31 42 -36 0 -12 -53 -21
-130 -21 -50 0 -78 6 -113 24 l-47 23 -64 -48 c-82 -62 -87 -70 -28 -52 56 17
115 11 157 -17 l29 -19 -49 -22 c-60 -27 -159 -36 -209 -19 -43 14 -45 13
-110 -70 l-47 -60 53 25 c59 28 129 32 167 11 24 -14 24 -14 -30 -45 -68 -39
-148 -64 -196 -59 -34 3 -38 0 -66 -47 -16 -27 -36 -66 -44 -85 l-15 -35 34
32 c39 38 95 63 140 63 61 0 64 -13 11 -60 -57 -51 -135 -90 -180 -90 -32 0
-33 -2 -54 -72 -11 -40 -23 -82 -26 -93 -3 -12 9 -4 33 24 54 62 164 107 164
67 0 -43 -144 -176 -191 -176 -25 0 -26 -4 -33 -105 l-7 -90 21 39 c11 22 30
51 43 64 22 25 105 68 113 59 3 -2 -5 -30 -17 -62 -20 -55 -93 -142 -141 -170
-16 -9 -17 -18 -7 -85 13 -100 20 -114 30 -62 11 56 44 109 83 133 45 27 49
24 41 -28 -9 -64 -49 -150 -87 -190 -30 -31 -31 -34 -19 -73 6 -22 20 -59 31
-82 l19 -43 0 35 c2 78 50 170 88 170 13 0 15 -13 11 -88 -5 -85 -21 -134 -55
-174 -14 -15 -10 -25 33 -97 26 -45 49 -80 50 -78 1 1 -2 27 -6 57 -4 30 -3
71 2 90 10 37 46 83 58 75 14 -9 33 -136 26 -181 -3 -24 -13 -58 -21 -75 l-16
-30 65 -67 66 -67 -20 53 c-11 29 -20 63 -20 77 0 29 29 105 40 105 12 0 50
-95 62 -155 7 -37 7 -67 1 -94 -10 -39 -10 -40 35 -73 26 -18 59 -41 75 -51
l28 -17 -28 47 c-22 38 -28 60 -28 110 0 33 3 64 7 68 4 4 18 -6 32 -21 41
-48 78 -131 85 -192 l6 -57 75 -32 c41 -18 114 -42 163 -54 48 -12 87 -26 87
-31 0 -5 -8 -7 -17 -4 -10 3 -47 12 -83 21 -36 9 -102 32 -147 52 l-83 35 -43
-21 c-56 -27 -139 -28 -211 -1 -71 27 -85 44 -49 58 50 20 99 24 158 13 32 -6
60 -9 62 -7 2 2 -13 14 -34 27 -21 13 -54 36 -75 52 -30 24 -40 27 -56 18 -59
-31 -199 4 -265 67 -33 31 -22 42 41 42 44 0 155 -33 182 -53 8 -7 -16 22 -55
63 l-70 75 -48 -3 c-36 -3 -61 2 -101 22 -52 26 -136 104 -136 127 0 29 128
-8 207 -61 l32 -21 -47 80 c-42 71 -50 80 -77 81 -68 1 -142 53 -195 136 -35
57 -37 64 -10 64 38 0 90 -29 147 -82 31 -29 53 -44 48 -33 -5 11 -19 53 -33
93 -15 45 -29 72 -38 72 -24 0 -87 36 -116 67 -41 43 -95 183 -71 183 28 0
110 -70 146 -124 37 -57 39 -59 33 -26 -4 19 -10 63 -13 97 -5 55 -9 63 -33
73 -65 27 -118 120 -128 223 -5 58 -4 59 16 48 36 -19 85 -86 108 -147 l22
-59 6 60 c15 141 16 131 -14 149 -55 32 -88 139 -76 240 7 52 9 55 27 43 30
-18 68 -105 76 -176 l8 -65 28 99 c27 98 27 98 8 119 -30 32 -41 71 -41 140 0
64 24 156 41 156 23 0 49 -86 49 -165 l0 -80 46 82 c44 81 45 83 28 109 -28
41 -24 136 8 204 14 30 33 64 41 75 15 20 16 19 26 -8 15 -40 14 -125 -4 -182
-8 -27 -13 -50 -12 -52 2 -1 19 19 39 45 20 26 48 58 62 71 20 19 23 28 15 48
-27 72 6 175 80 247 l39 38 6 -29 c9 -38 -8 -112 -39 -174 l-25 -49 72 56 c71
55 73 57 74 103 1 25 10 64 22 86 20 41 91 113 131 134 20 11 21 9 21 -24 0
-42 -18 -81 -70 -150 l-37 -50 88 44 c85 41 89 45 89 76 0 59 68 132 162 175
53 24 58 24 58 2z m638 -11 c79 -41 129 -95 144 -157 12 -49 12 -50 95 -91 46
-23 83 -40 83 -39 0 2 -14 21 -31 42 -42 53 -67 104 -75 154 -7 42 -7 42 17
30 93 -49 159 -142 159 -225 l0 -50 76 -58 75 -59 -24 49 c-32 63 -53 164 -39
189 9 17 14 15 48 -21 21 -22 48 -64 62 -94 21 -45 24 -64 20 -122 -3 -38 -1
-72 4 -75 4 -3 31 -35 60 -72 28 -37 49 -60 46 -52 -27 76 -33 207 -12 241 19
32 79 -84 90 -173 5 -43 2 -64 -13 -99 l-20 -45 43 -85 43 -84 1 80 c0 77 22
153 48 169 15 9 45 -101 44 -163 -1 -64 -14 -106 -44 -138 l-20 -22 23 -96 23
-96 12 58 c16 76 30 111 61 151 35 46 47 30 47 -66 0 -91 -26 -157 -78 -197
l-31 -23 3 -99 4 -98 21 50 c32 73 64 122 97 145 37 26 40 26 40 -11 0 -47
-21 -120 -46 -160 -26 -41 -79 -89 -100 -89 -7 0 -16 -10 -18 -22 -16 -78 -27
-150 -24 -154 2 -2 22 21 45 50 40 51 125 108 139 93 10 -10 -24 -94 -57 -144
-32 -45 -80 -80 -126 -89 -27 -5 -34 -15 -66 -95 l-35 -89 45 39 c50 45 118
81 151 81 28 0 28 -7 -6 -61 -51 -79 -126 -129 -196 -129 -33 0 -39 -5 -82
-70 -25 -38 -50 -72 -55 -76 -5 -3 -9 -10 -9 -16 0 -6 8 -4 18 4 35 32 127 70
180 75 52 6 54 5 44 -14 -18 -33 -92 -94 -139 -115 -32 -14 -61 -19 -99 -16
l-54 3 -76 -72 c-76 -72 -76 -73 -32 -53 61 27 153 40 197 28 l36 -10 -30 -24
c-77 -62 -188 -89 -263 -65 -36 12 -40 10 -118 -36 l-81 -49 89 4 c71 4 97 1
129 -13 21 -10 39 -21 39 -25 0 -12 -80 -41 -140 -51 -61 -10 -119 2 -162 33
-28 19 -28 19 -82 -1 -105 -39 -296 -78 -296 -60 0 4 21 11 48 14 74 11 172
35 237 58 l60 22 6 52 c7 56 40 121 91 179 37 42 50 34 50 -27 0 -57 -16 -96
-55 -138 l-32 -33 50 25 c28 14 65 36 84 49 32 23 33 26 35 98 1 59 8 89 30
137 38 83 50 92 66 52 21 -49 15 -115 -15 -173 l-26 -51 52 50 c97 93 97 93
83 134 -7 20 -13 61 -13 91 0 58 28 165 43 165 5 0 18 -17 29 -38 22 -42 26
-124 8 -170 -17 -43 3 -24 54 54 l47 72 -21 37 c-24 43 -42 159 -34 220 6 46
12 48 41 17 31 -33 52 -90 52 -144 0 -57 8 -49 46 50 l26 68 -25 27 c-14 15
-34 45 -45 68 -22 43 -49 171 -38 181 7 7 55 -24 78 -51 10 -12 26 -48 36 -81
l19 -60 16 90 c13 68 14 91 5 94 -31 10 -98 87 -121 139 -38 86 -41 102 -22
102 46 0 103 -51 134 -120 l21 -45 0 91 0 92 -55 26 c-57 29 -114 86 -146 149
l-19 37 31 0 c43 0 113 -42 145 -88 l26 -37 -7 40 c-4 22 -14 62 -23 90 -16
47 -19 50 -60 57 -68 11 -214 120 -198 147 19 31 121 2 181 -51 l37 -31 -42
84 -42 84 -57 1 c-61 1 -172 46 -206 84 -17 19 -17 20 9 30 45 17 90 11 149
-18 l56 -28 -27 36 c-15 20 -41 53 -59 73 -30 34 -33 35 -70 25 -21 -6 -64 -8
-96 -4 -56 6 -157 41 -157 55 0 4 16 15 35 24 44 21 114 22 162 2 l37 -16 -24
27 c-14 14 -47 42 -73 61 l-49 36 -31 -18 c-35 -21 -150 -31 -222 -20 l-47 7
28 29 c37 39 84 53 158 46 l61 -5 -88 44 -88 45 -34 -27 c-19 -14 -62 -34 -96
-45 -63 -20 -159 -26 -159 -10 0 18 80 80 118 91 21 7 64 10 96 9 42 -3 53 -1
40 6 -95 56 -175 139 -189 198 -9 35 1 35 73 -2z m-188 -392 c191 -30 398
-138 544 -285 205 -204 308 -476 293 -772 -18 -367 -229 -687 -562 -852 -580
-288 -1270 28 -1436 658 -32 119 -37 329 -11 453 90 434 458 766 895 808 89 9
175 6 277 -10z m-2660 -3454 c0 -3 -34 -219 -75 -481 -41 -262 -75 -496 -75
-520 0 -31 6 -50 20 -64 19 -19 33 -20 260 -20 132 0 240 -3 240 -7 0 -10 -29
-182 -35 -211 l-6 -23 -302 3 c-330 3 -333 4 -400 66 -32 30 -57 105 -57 171
0 25 37 281 82 569 l83 522 132 0 c73 0 133 -2 133 -5z m955 -22 c-8 -41 -195
-1210 -202 -1260 l-6 -43 -134 0 -135 0 6 28 c3 15 48 299 101 632 52 333 97
620 100 638 l6 32 134 0 135 0 -5 -27z m937 8 c65 -4 121 -11 125 -14 6 -6
-10 -138 -24 -194 l-5 -23 -249 0 c-282 0 -304 -4 -332 -63 -10 -20 -25 -89
-35 -155 l-19 -119 141 -6 c78 -4 190 -7 250 -7 l108 0 -5 -32 c-3 -18 -11
-68 -18 -110 l-12 -78 -156 0 c-86 0 -199 -3 -252 -6 l-95 -7 -39 -248 -38
-249 -135 0 -134 0 6 28 c3 15 40 248 81 517 41 270 84 520 95 556 36 122 135
203 264 217 70 8 308 5 478 -7z m1224 -3 c-3 -13 -10 -59 -16 -103 -6 -44 -13
-88 -16 -97 -5 -16 -25 -18 -187 -20 l-182 -3 -85 -540 -86 -540 -132 -3 c-73
-1 -132 1 -132 6 0 13 159 1034 165 1060 l5 22 -180 0 c-137 0 -180 3 -180 13
0 6 7 60 16 120 l17 107 499 0 498 0 -4 -22z m434 9 c0 -7 -27 -182 -61 -388
-69 -427 -80 -565 -52 -619 29 -55 83 -80 177 -80 105 0 148 14 195 65 69 75
86 144 177 728 l49 307 132 0 c73 0 133 -2 133 -5 0 -12 -122 -777 -135 -850
-32 -171 -99 -314 -177 -380 -83 -70 -215 -106 -387 -106 -131 0 -198 12 -277
51 -94 46 -141 117 -164 247 -18 101 -11 179 61 636 l64 407 132 0 c104 0 133
-3 133 -13z m1559 3 c139 -18 212 -65 259 -169 61 -132 25 -418 -71 -568 -35
-55 -112 -116 -184 -144 -51 -20 -75 -23 -193 -22 -74 0 -164 6 -199 12 -34 7
-65 10 -68 8 -4 -4 -72 -406 -73 -429 0 -5 -61 -8 -135 -8 -135 0 -135 0 -130
23 6 26 205 1283 205 1297 0 14 482 13 589 0z"/>
<path d="M4052 6209 c-367 -44 -669 -307 -774 -674 -20 -69 -23 -103 -23 -240
0 -192 11 -241 90 -400 136 -274 368 -447 671 -500 110 -19 188 -19 298 0 387
68 679 356 752 743 19 103 14 293 -10 383 -47 169 -140 324 -269 445 -93 87
-156 129 -274 179 -132 57 -315 82 -461 64z m343 -58 c300 -80 546 -329 627
-636 30 -113 30 -317 0 -428 -71 -260 -235 -464 -467 -579 -134 -67 -229 -89
-385 -89 -234 0 -439 79 -606 235 -188 173 -294 433 -281 681 17 310 181 576
453 735 73 42 151 72 255 95 92 21 299 14 404 -14z"/>
<path d="M4145 6020 c-10 -19 -27 -32 -48 -38 l-32 -8 28 -18 c21 -14 27 -26
27 -52 0 -34 0 -34 25 -18 23 15 27 15 52 -1 l26 -17 -6 35 c-5 30 -2 38 19
52 29 18 23 35 -11 35 -17 0 -29 9 -40 30 -9 17 -18 30 -20 30 -2 0 -11 -13
-20 -30z"/>
<path d="M4415 5979 c-16 -16 -26 -19 -58 -14 l-39 7 17 -26 c16 -25 16 -39 0
-78 -6 -15 -3 -17 23 -12 24 5 33 2 44 -15 17 -27 24 -27 32 4 4 16 18 30 39
38 l32 13 -28 18 c-21 14 -27 26 -27 52 0 39 -9 43 -35 13z"/>
<path d="M3880 5951 c0 -20 -9 -36 -25 -49 -31 -25 -31 -32 -2 -32 31 0 44
-11 53 -44 l7 -28 22 28 c17 22 27 26 49 20 l27 -7 -16 31 c-14 27 -14 33 1
61 l16 32 -36 -7 c-26 -5 -43 -2 -58 9 -32 21 -38 19 -38 -14z"/>
<path d="M4560 5817 c0 -21 -7 -36 -20 -45 -28 -17 -25 -32 5 -32 20 0 27 -6
32 -30 l6 -31 23 22 c16 15 32 20 53 17 35 -5 38 2 16 36 -12 18 -13 29 -5 51
13 35 10 38 -25 25 -22 -8 -33 -7 -51 5 -32 21 -34 20 -34 -18z"/>
<path d="M3749 5820 c-21 -16 -32 -18 -57 -10 -34 9 -39 2 -22 -31 8 -14 7
-27 -5 -48 -20 -40 -20 -40 23 -34 27 4 42 1 51 -11 19 -23 31 -20 31 8 0 19
7 26 30 31 l31 7 -25 19 c-16 13 -26 32 -28 54 l-3 34 -26 -19z"/>
<path d="M4510 5395 l0 -115 -325 0 -325 0 0 110 0 110 -45 0 -45 0 2 -262 3
-263 43 -3 42 -3 0 110 0 111 325 0 325 0 0 -120 0 -120 45 0 45 0 0 280 0
280 -45 0 -45 0 0 -115z"/>
<path d="M4660 5235 l0 -195 40 0 40 0 0 75 0 75 40 0 40 0 0 45 0 45 -40 0
-40 0 0 75 0 75 -40 0 -40 0 0 -195z"/>
<path d="M3627 5413 c-4 -3 -7 -35 -7 -70 l0 -63 -35 0 c-35 0 -35 0 -35 -45
0 -45 0 -45 35 -45 l34 0 3 -62 3 -63 43 -3 42 -3 0 180 0 181 -38 0 c-21 0
-42 -3 -45 -7z"/>
<path d="M4165 4810 l-17 -50 -51 0 -51 0 42 -31 c23 -17 42 -32 42 -34 0 -1
-7 -22 -15 -45 -8 -24 -13 -45 -11 -48 3 -2 20 8 39 22 19 14 38 26 44 26 5 0
28 -13 51 -30 l41 -29 -19 54 -18 53 41 29 42 28 -52 3 -52 3 -16 50 c-9 27
-18 49 -20 49 -2 0 -11 -22 -20 -50z"/>
<path d="M6421 2543 c-7 -37 -22 -137 -35 -220 l-23 -153 131 0 c159 0 193 9
240 60 55 61 89 214 67 297 -19 69 -42 77 -217 81 l-152 4 -11 -69z"/>
</g>
</svg>
